#!OML:ASF F:\VICON\USERDATA\INSTALL\rory3\rory3.ASF
:FULLY-SPECIFIED
:DEGREES
37
root 0.06011991722917673 18.553730372069012 14.222832087730843 4.442221863975253 -1.8049560377625848 0.5561812167112481
lfemur 14.95746968720245 -5.335569160198353 -27.6104097589605
ltibia 46.360021217996746
lfoot 22.405145946204854 -16.60502047228625
ltoes -8.209964167508724
rfemur -39.367870869594654 -0.09338053107845579 26.767619473260336
rtibia 26.555433670867927
rfoot 5.0789528578244845 -1.5461146864902613
rtoes -12.530448355718612
lowerback 14.679729784823135 -1.74618670351447 -1.8190324404408493
upperback -1.2816365504824183 -2.5220933351378187 2.014827827921859
thorax -9.33085845611736 -1.0075069875856713 4.381001110573504
lowerneck -21.540014892563896 -2.2710426371626813 -2.262263685545905
upperneck 13.909246244502157 -2.727522935388383 1.8716781901462145
head 7.79815242423085 -1.2212548134697712 0.5739084611814232
lclavicle -1.343054226512304e-15 2.063252753616973e-15
lhumerus -36.45180426947023 -21.222911873760374 95.19649430107579
lradius 116.0897148504713
lwrist 34.16531161275712
lhand -24.623874535221 0.4938530654241886
lfingers 7.12502
lthumb 1.8748886822458137 30.463187426642598
rclavicle -1.343054226512304e-15 2.063252753616973e-15
rhumerus -64.79360238169696 -0.3148532937502644 -93.79390859457159
rradius 112.60828398560469
rwrist -8.539318419005093
rhand -15.96254810260362 40.48984131017664
rfingers 7.12502
rthumb 10.235528281697581 10.570557324127853
38
root 0.05363064064701409 18.397974673918558 15.400706621616159 3.821255588543294 -2.233531010503617 0.453030402962574
lfemur 12.96492496290069 -4.491301525552918 -26.78794493148037
ltibia 52.59715102611975
lfoot 21.475471551902533 -16.21732248942051
ltoes -6.203848327439688
rfemur -38.35127952917219 -0.20395695143236514 27.404210493616706
rtibia 29.209260780426327
rfoot 4.094319614800827 -0.510066535111811
rtoes -7.273921145471201
lowerback 14.994080897324128 -1.52218749667722 -1.6305397516929763
upperback -1.0133184293583843 -2.198245944615086 2.0036298412517404
thorax -9.357375082515425 -0.8664514388144743 4.160952488198247
lowerneck -21.195054650856893 -2.329043395534369 -2.358673296270402
upperneck 13.799364814096494 -2.771412604317954 1.793613654307543
head 7.724459967559553 -1.261513138635959 0.5544542628582367
lclavicle -1.453508648439199e-15 1.983179261788637e-15
lhumerus -37.49261409497023 -20.69101441103954 95.66788351593893
lradius 112.84165246251665
lwrist 33.94851983306141
lhand -25.068172282209964 -0.0399853996941919
lfingers 7.12502
lthumb 1.445798070372709 29.928817574019895
rclavicle -1.453508648439199e-15 1.983179261788637e-15
rhumerus -63.66137025568932 -0.6279735517503156 -93.8387831566423
rradius 111.58366305422544
rwrist -8.274510867173001
rhand -16.308008111019006 40.51211140881369
rfingers 7.12502
rthumb 9.902270451256049 10.580710573272079
39
root 0.047438414148756186 18.174825939663535 15.926713303750038 3.1862269618520824 -2.7029741518646664 0.16431787632898498
lfemur 11.028395012002209 -3.0556738291404604 -25.28843735571286
ltibia 59.751100916188875
lfoot 20.572744469855625 -15.55695200662867
ltoes -4.786151225260115
rfemur -36.9153670486573 0.15551022668745218 28.271109341707533
rtibia 32.836024167317014
rfoot 2.650175224381365 0.2705547565445352
rtoes 0.41236345200782676
lowerback 15.366204476323698 -1.203846614982973 -1.268756191604006
upperback -0.7785761368460211 -1.707481541507164 2.1250049162227667
thorax -9.42537744111219 -0.652727845316157 3.9785675544381993
lowerneck -20.903219394020244 -2.338430586583173 -2.372469886202656
upperneck 13.767175251770796 -2.764720936340805 1.6608377882198417
head 7.679756484393821 -1.2763499953980766 0.5011771814120551
lclavicle -1.2529625452714952e-15 2.1287591376605526e-15
lhumerus -38.440486636702644 -19.814712654173277 96.24796004479147
lradius 109.46221584116087
lwrist 33.87152838393393
lhand -25.482758690131618 -0.5414503971465086
lfingers 7.12502
lthumb 1.045408488749641 29.42762083987188
rclavicle -1.2529625452714952e-15 2.1287591376605526e-15
rhumerus -62.17784725016424 -0.2099995535761554 -94.08135008025695
rradius 110.56036402454909
rwrist -8.048987459898214
rhand -16.59871881316198 40.55019869662589
rfingers 7.12502
rthumb 9.62180124652168 10.607088292972255
40
root 0.037137598225092244 17.917075096875223 16.56261481698907 2.696801334954321 -3.3190107995277063 -0.5061108806294965
lfemur 7.621641492730204 -1.5176860458257662 -23.163508713651442
ltibia 66.69261847478204
lfoot 18.514176988558983 -14.344856545869915
ltoes -3.729983287540848
rfemur -35.76944203703 0.705403651115442 29.260682916788543
rtibia 38.80325508099206
rfoot 0.23141985256646436 0.1598561138345458
rtoes 6.772779653871826
lowerback 15.719064781668916 -0.8752382701217896 -0.7047419520068912
upperback -0.572983457576446 -1.1366725175775025 2.285878168990771
thorax -9.546730345115037 -0.4117120915452407 3.6155964865724397
lowerneck -20.84579804099894 -2.3979663584624444 -2.31644192045299
upperneck 13.772408577327381 -2.8397095705742768 1.492145825629812
head 7.666796800954134 -1.3255305207106658 0.42018239485701303
lclavicle -1.5278855727278813e-15 1.929459819653787e-15
lhumerus -40.06955575983845 -18.787570998895294 96.9070463961079
lradius 105.65433582289319
lwrist 33.54649332574087
lhand -25.735245692837825 -0.6414019984460568
lfingers 7.12502
lthumb 0.8015598125300997 29.32765604039239
rclavicle -1.5278855727278813e-15 1.929459819653787e-15
rhumerus -60.26037415102155 0.4241081588222002 -94.51645173296548
rradius 109.2741624961264
rwrist -8.093714021464844
rhand -16.902352354889906 40.52978675335356
rfingers 7.12502
rthumb 9.328853447525635 10.521518097101882
41
root 0.020622265229276376 17.68174618140438 16.71706298396441 2.410069412441905 -3.8654698173653776 -1.4709959969331754
lfemur 3.6225292690570203 0.6125647234831431 -20.12616022640943
ltibia 74.61980433908032
lfoot 16.507618493003516 -12.82719229786128
ltoes -3.142333988661971
rfemur -33.931540115329 1.7421803920477887 30.687340544645405
rtibia 44.555615032692074
rfoot -3.1042691740013737 -1.463304105373079
rtoes 11.850554167149179
lowerback 16.12038825430926 -0.5157508064611178 0.14903993299810137
upperback -0.4014061637929398 -0.45915117524557814 2.6315305623329417
thorax -9.683199601050232 -0.13121556502789322 3.255562413702584
lowerneck -20.937073401244746 -2.3922007998744323 -2.148428815410306
upperneck 13.80368357785652 -2.843578694489112 1.3162219340794359
head 7.6808362412101445 -1.3368232841707357 0.3229845099898944
lclavicle -1.4157562435932441e-15 2.0108145707868955e-15
lhumerus -41.574185826551606 -17.631338054777057 97.63601066899274
lradius 101.99627157438648
lwrist 33.3914166285488
lhand -25.908662012629616 -0.3079999134863691
lfingers 7.12502
lthumb 0.6340754426046363 29.66568068838027
rclavicle -1.4157562435932441e-15 2.0108145707868955e-15
rhumerus -57.75432469346144 1.728741973486943 -95.01137326952986
rradius 107.99883198967146
rwrist -8.326715951054009
rhand -17.140818528988063 40.27803504845323
rfingers 7.12502
rthumb 9.098784689608777 10.227126322681283
42
root -0.008199198990367196 17.443472708562403 16.682072517772845 2.287332504050207 -4.269154767769689 -2.5996774512920338
lfemur -1.8164816694013552 2.51941785147796 -17.11444189377452
ltibia 81.54311260821534
lfoot 13.659213272212527 -11.240788295238335
ltoes -2.9526214773221877
rfemur -32.06954340913556 2.907103321531137 32.07153726101134
rtibia 49.35114015053429
rfoot -7.232556748443605 -4.568257741771015
rtoes 13.764540325702518
lowerback 16.46734849691862 -0.192720045924464 1.003644923661449
upperback -0.26723084470083136 0.18435883312024126 2.9832676613430906
thorax -9.834700260251767 0.13292172101388933 2.796505985081725
lowerneck -21.21497623035028 -2.392144165580845 -1.9405044381626024
upperneck 13.71023836675297 -2.864896857961163 1.158600189984212
head 7.6806469769986165 -1.3506553411430875 0.221848767600838
lclavicle -1.8578157727834545e-15 1.6902206245912201e-15
lhumerus -43.4677457033934 -16.65450484266783 98.23483317356703
lradius 98.95250065911462
lwrist 33.062726121355716
lhand -25.83683573760773 0.49287383615665226
lfingers 7.12502
lthumb 0.703430118557721 30.4692631905409
rclavicle -1.8578157727834545e-15 1.6902206245912201e-15
rhumerus -55.17633868311537 3.1774999758456604 -95.53863805155882
rradius 106.85710679065174
rwrist -8.787771199544228
rhand -17.387609568658483 40.0294661716259
rfingers 7.12502
rthumb 8.860683839019853 9.944956700013265
43
root -0.04934450010689595 17.244104120066897 16.81445687494578 2.3749357570684415 -4.357787718048345 -3.694014654507546
lfemur -8.253125698462606 4.174703626937227 -14.338208641861353
ltibia 87.67787217096578
lfoot 10.37536232891201 -9.576553854357659
ltoes -2.9246349214199823
rfemur -29.532744339153876 3.8527163007228955 33.400219218191395
rtibia 53.612628920635856
rfoot -11.212883065588239 -8.479225653116186
rtoes 12.839218281171071
lowerback 16.799302679986436 0.1123860177418674 1.862427923691988
upperback -0.16104935434378942 0.8008238039514862 3.3050224296345316
thorax -9.979152922409831 0.383807287795371 2.325454734128685
lowerneck -21.568032179147448 -2.4281956926958577 -1.7349479047617877
upperneck 13.488934746115635 -2.9480300101997363 1.106508841633113
head 7.6590064067671095 -1.3831043925606545 0.15473382975764416
lclavicle -2.1661872447568864e-15 1.4665439348777635e-15
lhumerus -45.55324404025913 -15.808251775186699 98.770627688197
lradius 96.72086772180789
lwrist 32.75542605657698
lhand -25.66479991744498 1.4710863877644482
lfingers 7.12502
lthumb 0.869563727978546 31.450348291194796
rclavicle -2.1661872447568864e-15 1.4665439348777635e-15
rhumerus -52.26315900697205 4.933220208068036 -95.9702231694878
rradius 106.16938271234977
rwrist -9.250435412078586
rhand -17.518297877414994 39.78846922147497
rfingers 7.12502
rthumb 8.734590160352518 9.694346386844588
